<svg width="20" height="20" viewBox="0 0 20 20" fill="none" xmlns="http://www.w3.org/2000/svg">
  <g clip-path="url(#clip0_951_171)">
    <path d="M18.3333 0H1.66667C0.746192 0 0 0.746192 0 1.66667V18.3333C0 19.2538 0.746192 20 1.66667 20H18.3333C19.2538 20 20 19.2538 20 18.3333V1.66667C20 0.746192 19.2538 0 18.3333 0Z" fill="#96154A"/>
    <g clip-path="url(#clip1_951_171)">
      <path d="M1 15.9646C1.02018 16.5305 1.22515 17.0747 1.58413 17.5154C1.94311 17.9561 2.43673 18.2696 2.99087 18.4088C3.73416 18.5905 7.56632 19.0045 9.83322 19.0045C12.1001 19.0045 15.9338 18.5905 16.6771 18.4088C17.2312 18.2696 17.7249 17.9561 18.0839 17.5154C18.4428 17.0747 18.6478 16.5305 18.668 15.9646V4.03076C18.6476 3.46489 18.4425 2.92081 18.0836 2.48014C17.7246 2.03947 17.2311 1.72594 16.6771 1.58656C15.9338 1.40477 12.1017 0.99231 9.83322 0.99231C7.56477 0.99231 3.73416 1.40477 2.99087 1.58656C2.43685 1.72594 1.94337 2.03947 1.58443 2.48014C1.22549 2.92081 1.02043 3.46489 1 4.03076V15.9646Z" fill="#96154A"/>
      <path d="M11.1935 9.69064C9.67608 9.42332 8.66445 10.2284 8.66445 11.5345V14.5225L6.27881 16.0364V11.5345C6.27881 8.92224 8.10468 7.10439 11.1935 7.47254V9.69064Z" fill="white"/>
      <path d="M10.3882 5.17646C10.3882 5.44476 10.3079 5.70704 10.1574 5.93012C10.007 6.15321 9.79309 6.3271 9.54285 6.42975C9.29262 6.53242 9.01729 6.55927 8.75166 6.50695C8.48601 6.45459 8.242 6.32539 8.05052 6.13569C7.859 5.94597 7.72857 5.70427 7.67572 5.44111C7.6229 5.17799 7.64999 4.90525 7.75366 4.65735C7.85729 4.40949 8.03282 4.19762 8.25803 4.04858C8.48321 3.89951 8.74795 3.81995 9.01881 3.81995C9.38199 3.81995 9.7303 3.96288 9.98711 4.21727C10.2439 4.47167 10.3882 4.81671 10.3882 5.17646Z" fill="white"/>
      <path d="M11.7642 9.51033C11.7677 9.59294 11.798 9.67227 11.8504 9.73661C11.9029 9.80095 11.9748 9.84692 12.0556 9.86778C12.3862 9.91986 12.7202 9.94899 13.0549 9.95486C13.3901 9.94905 13.7246 9.91992 14.0557 9.86778C14.1365 9.84692 14.2084 9.80095 14.2609 9.73661C14.3134 9.67227 14.3436 9.59294 14.3472 9.51033V7.76576C14.3438 7.68324 14.3136 7.60406 14.261 7.53991C14.2085 7.47578 14.1365 7.43018 14.0557 7.40983C13.7246 7.35769 13.3901 7.32859 13.0549 7.32275C12.7202 7.32865 12.3862 7.35775 12.0556 7.40983C11.9748 7.43018 11.9028 7.47578 11.8503 7.53991C11.7978 7.60406 11.7676 7.68324 11.7642 7.76576V9.51033Z" fill="#F6ABB6"/>
    </g>
  </g>
  <defs>
    <clipPath id="clip0_951_171">
      <rect width="20" height="20" fill="white"/>
    </clipPath>
    <clipPath id="clip1_951_171">
      <rect width="52" height="18" fill="white" transform="translate(1 1)"/>
    </clipPath>
  </defs>
</svg>
