<svg id="Ebene_1" data-name="Ebene 1" xmlns="http://www.w3.org/2000/svg" width="342.29mm" height="143.81mm"
     viewBox="0 0 970.28 407.65"><defs><clipPath id="clip-path"><path d="M-1648.81-819.49c0,28.38,28,52.69,72.06,93.23,44-40.54,72.06-64.85,72.06-93.23,0-21.08-16-36.48-36-36.48-16,0-30.43,10.54-36,24.32-5.6-13.78-20-24.32-36-24.32C-1632.79-856-1648.81-840.57-1648.81-819.49Z" fill="none" clip-rule="evenodd"/></clipPath><clipPath id="clip-path-2"><path d="M671.53,82.51c0,57,56.33,105.92,144.83,187.38,88.5-81.46,144.82-130.34,144.82-187.38C961.18,40.16,929,9.2,888.77,9.2c-32.18,0-61.14,21.19-72.41,48.88C805.11,30.39,776.14,9.2,744,9.2,703.73,9.2,671.53,40.16,671.53,82.51Z" fill="none" clip-rule="evenodd"/></clipPath></defs><path d="M819.76,269.48,747.39,0H139.11C62.41,0,0,63.16,0,140.8s62.4,140.77,139.1,140.77h38.15l-25,38.46a54.58,54.58,0,0,0-7.75,41,58.93,58.93,0,0,0,57.33,46.59h.52a55.24,55.24,0,0,0,46.14-24.77l67.13-101.31H816Z" fill="#fff"/><path d="M685.68,40.7H139.11c-54.4,0-98.3,44.7-98.3,100.1s43.9,100.09,98.3,100.09H685.38c54.4,0,98.3-44.69,98.3-100.09C783.68,85.7,739.78,40.7,685.68,40.7Z" fill="#fff"/><path d="M746.38,10.5H139.11c-70.9,0-128.6,58.4-128.6,130.3s57.7,130.29,128.6,130.29h57.53L161,325.77c-13.8,20.8-7.1,49.3,14.7,63.5,21.6,14.2,50.3,8.6,64-12.2l70.29-106H817.68s-11.5-58.39-11.7-130.28C806,68.9,746.38,10.5,746.38,10.5Zm71,200.5H139.11c-37.3,0-67.8-31.5-67.8-69.9,0-38.7,30.5-69.9,67.8-69.9H746.38c37.3,0,138.8,31.5,138.8,69.9C885.18,179.8,854.68,211,817.38,211Z" fill="#00a4e8"/><path d="M205.41,171h-20.6l-5.1-23.1a122,122,0,0,1-2.3-15.8h0a101.41,101.41,0,0,1-2.3,15l-5.3,23.9h-19.3l-14.7-61.7h18l5.6,25.2a104.14,104.14,0,0,1,2,13.5h0a106.83,106.83,0,0,1,2.3-13.2l6.6-25.4h17l6.1,24.6a83.57,83.57,0,0,1,2.5,13.5h0c.8-5.3,1.5-10.2,2.5-14.2l5.1-23.9h17Z" fill="#262274"/><path d="M231.11,171V109.3h17V171Z" fill="#262274"/><path d="M263.31,171V109.3h17V156h17v15.2h-34Z" fill="#262274"/><path d="M309.29,171V109.3h17V156h17v15.2h-34Z" fill="#262274"/><path d="M390.58,171V146.6h-18.5V171h-17V109.3h17v22.6h18.5V109.3h17V171Z" fill="#262274"/><path d="M459.38,171l-3.3-10.2H437L434,171H417.2l20.1-61.7h19.6L478,171Zm-9.9-31c-1-3.6-2.3-6.9-2.8-10.7h-.3a87.67,87.67,0,0,1-3,11.7l-2,6.9h10.7Z" fill="#262274"/><path d="M509,171.3c-3.8,0-10.9-.3-21.3-.3V109.5c6.1-.3,17-.5,24.6-.5,13.5,0,21.8,5.1,21.8,16a15.06,15.06,0,0,1-7.9,13v.3c5.3,1.8,8.9,7.4,8.9,13.5C535.08,162.4,526.48,171.3,509,171.3Zm.5-48.5a22.74,22.74,0,0,0-4.8.3v10.2h3.6c5.3,0,7.9-2.3,7.9-5.8-.11-3.2-2.61-4.7-6.71-4.7Zm-.5,23.1h-4.3v11.2c1,0,3,.3,4.3.3,4.6,0,7.6-2,7.6-5.8.3-3.2-2.3-5.7-7.6-5.7Z" fill="#262274"/><path d="M546.78,171V109.3h36.1v14.5h-19.1v8.6h18v14h-18v9.9h19.1V171Z" fill="#262274"/><path d="M629.68,171l-10.4-21.1a145.92,145.92,0,0,1-6.1-14c.3,3.6.5,5.8.5,9.7v25.2h-16.3V109.3h21.8l8.9,18.3c2.5,5.6,5.3,11.2,7.4,16a114.85,114.85,0,0,1-.8-12.7V109.3H651V171Z" fill="#262274"/><g clip-path="url(#clip-path-2)"><rect x="675.69" y="124.62" width="663.44" height="46.3" transform="translate(40.5 466.83) rotate(-26.61)" fill="#5305ce"/><rect x="655.02" y="83.35" width="663.44" height="46.3" transform="translate(56.8 453.21) rotate(-26.61)" fill="#0048fc"/><rect x="634.35" y="42.09" width="663.44" height="46.3" transform="translate(73.09 439.58) rotate(-26.61)" fill="#04af28"/><rect x="613.68" y="0.82" width="663.44" height="46.3" transform="translate(89.38 425.95) rotate(-26.61)" fill="#fbda00"/><rect x="592.97" y="-40.52" width="663.44" height="46.3" transform="translate(105.7 412.3) rotate(-26.61)" fill="#f39200"/><rect x="572.27" y="-81.84" width="663.44" height="46.3" transform="translate(122.02 398.65) rotate(-26.61)" fill="red"/></g><path d="M888.91,9.2c40.23,0,72.41,31,72.41,73.31,0,57-56.32,105.92-144.83,187.38C728,188.43,671.67,139.55,671.67,82.51c0-42.35,32.19-73.31,72.41-73.31,32.19,0,61.16,21.19,72.41,48.88C827.76,30.39,856.73,9.2,888.91,9.2m0-8.5A85.83,85.83,0,0,0,840,16.26,90.2,90.2,0,0,0,816.5,40.1,90.09,90.09,0,0,0,793,16.26,85.8,85.8,0,0,0,744.08.7,80.45,80.45,0,0,0,686.79,24c-15.23,15.19-23.62,36-23.62,58.56,0,27.66,11.6,54.09,37.61,85.7,23.3,28.31,56,58.37,97.45,96.43l12.51,11.5,5.75,5.3,5.76-5.3,12.51-11.5c41.42-38.06,74.14-68.12,97.44-96.43,26-31.61,37.62-58,37.62-85.7,0-22.58-8.39-43.37-23.62-58.56A80.45,80.45,0,0,0,888.91.7Z" fill="#fff"/></svg>
