<svg width="260" height="59" viewBox="0 0 260 59" xmlns="http://www.w3.org/2000/svg" xmlns:xlink="http://www.w3.org/1999/xlink"><defs><path id="a" d="M0 .344h170.487v19.912H0z"/><path id="c" d="M.297.281h40.595v18.35H.297z"/></defs><g fill="none" fill-rule="evenodd"><path fill="#000" d="M0 0h260v59H0z"/><g transform="translate(19.33 19.388)"><mask id="b" fill="#fff"><use xlink:href="#a"/></mask><path d="M165.074 6.515c-1.09 0-2.367.18-3.482.968v-.82h-3.08v13.444h3.08v-8.122c0-1.198.996-2.636 2.949-2.636 1.713 0 2.865 1.126 2.865 2.802v7.956h3.081v-8.144c0-3.331-2.204-5.448-5.413-5.448Zm-69.493 0c-1.09 0-2.367.18-3.482.968v-.82h-3.08v13.444h3.08v-8.122c0-1.198.996-2.636 2.949-2.636 1.714 0 2.865 1.126 2.865 2.802v7.956h3.081v-8.144c0-3.331-2.204-5.448-5.413-5.448Zm32.815 0c-1.09 0-2.367.18-3.482.968v-.82h-3.08v13.444h3.08v-8.122c0-1.198.996-2.636 2.949-2.636 1.713 0 2.865 1.126 2.865 2.802v7.956h3.08v-8.144c0-3.331-2.203-5.448-5.412-5.448Zm-82.3 5.367c-1.337-.307-2.284-.635-2.299-1.4-.018-1.026.91-1.334 2.521-1.334l2.778-.003V6.664l-2.752.004c-2.42 0-5.46.506-5.46 3.999.03 1.57 1.13 2.783 3.185 3.408.471.143.953.253 1.418.36 1.427.328 2.657.664 2.676 1.694.017.933-1.266 1.49-2.342 1.508-1.893 0-3.144-1.056-3.535-1.438l-2.01 1.814s1.759 2.243 5.666 2.243c2.561 0 5.182-1.606 5.134-4.231-.047-2.603-2.543-3.581-4.98-4.143Zm26.973.094c-.138-.867-.564-1.664-1.278-2.176-.776-.557-1.527-.659-2.344-.659-1.136 0-2.165.522-2.881 1.324-.57.638-.827 1.511-.827 1.511h7.33Zm-3.355 8.28c-4.048-.013-7.079-2.945-7.088-6.866 0-.866.152-1.735.466-2.547a6.711 6.711 0 0 1 2.424-3.074c1.202-.832 2.678-1.255 4.15-1.255 1.95.002 3.526.655 4.658 1.832.778.81 1.304 1.838 1.607 2.897.273.953.302 1.906.302 2.886h-10.57l.062.293c.388 1.806 1.986 3.016 3.99 3.019 1.734-.005 2.868-.794 3.464-1.373l2.108 1.903c-1.28 1.418-3.364 2.28-5.573 2.285Zm-34.357-8.28c-.138-.867-.565-1.664-1.279-2.176-.775-.557-1.527-.659-2.344-.659-1.136 0-2.165.522-2.88 1.324-.57.638-.828 1.511-.828 1.511h7.33Zm-3.355 8.28c-4.049-.013-7.08-2.945-7.088-6.866 0-.866.15-1.735.465-2.547a6.708 6.708 0 0 1 2.425-3.074c1.201-.832 2.678-1.255 4.15-1.255 1.949.002 3.526.655 4.658 1.832.777.81 1.303 1.838 1.606 2.897.273.953.303 1.906.303 2.886H27.95l.062.293c.388 1.806 1.987 3.016 3.991 3.019 1.734-.005 2.867-.794 3.464-1.373l2.108 1.903c-1.28 1.418-3.365 2.28-5.573 2.285ZM22.046 2.222l-3.522 12.725-4.226-12.725h-3.311L6.76 14.947 3.238 2.222H0l4.95 17.885h3.24L12.641 6.84l4.454 13.267h3.238l4.95-17.885h-3.238Zm62.395 4.322c-.925.117-1.898.417-2.763 1.089v-.97h-3.081v13.444h3.08v-8.175c0-.275.047-.549.156-.802.264-.613.775-1.257 1.52-1.567.501-.21.977-.28 1.388-.28.446 0 1.097.069 1.556.3V6.709s-.93-.283-1.856-.165Zm53.627-6.2c-1.292 0-2.338 1.013-2.338 2.264 0 .571.22 1.092.582 1.49h3.51c.363-.398.584-.919.584-1.49 0-1.25-1.047-2.264-2.338-2.264Zm-22.204 12.688s.281 4.19-4.45 4.19c-4.73 0-4.447-4.212-4.447-4.212V2.221h-3.25v10.69c0 4.47 3.022 7.345 7.699 7.345 4.676 0 7.698-2.874 7.698-7.323V2.22h-3.25v10.811Zm37.214.354c0-2.364-1.684-4.08-4.005-4.08-2.336 0-4.032 1.716-4.032 4.08s1.696 4.08 4.032 4.08c2.321 0 4.005-1.716 4.005-4.08Zm3.07 0c0 3.917-3.041 6.87-7.075 6.87-4.049 0-7.102-2.953-7.102-6.87 0-3.918 3.053-6.871 7.102-6.871 4.034 0 7.075 2.953 7.075 6.871Zm-19.62-6.723v13.444h3.08V6.663h-3.08ZM60.728 17.048l.68 2.457-.326.161c-.761.354-1.503.59-2.647.59-2.496 0-4.047-1.49-4.047-3.89l-.004-7.221h-2.566V6.664h2.566v-3.56l3.079-.8v4.36h3.25v2.48h-3.252l.002 6.841c0 .873.602 1.474 1.533 1.53.517.03 1.03-.116 1.483-.342l.25-.125Z" fill="#FD0" mask="url(#b)"/></g><path fill="#FFF" d="m197.977 39.495-5.078-17.885h1.296l5.078 17.885z"/><g transform="translate(199.763 21.329)"><mask id="d" fill="#fff"><use xlink:href="#c"/></mask><path d="M36.91.281v11.042c.002.015.082 1.515-.918 2.543-.65.667-1.625 1.005-2.9 1.005-1.274 0-2.25-.338-2.898-1.005-1-1.027-.92-2.528-.919-2.542L29.277.281h-1.643l-2.341 8.33v2.59c0 2.204.738 4.072 2.135 5.401 1.394 1.327 3.353 2.029 5.665 2.029 2.31 0 4.27-.702 5.664-2.029 1.397-1.329 2.135-3.197 2.135-5.401V.28H36.91Zm-11.617 0-5.028 17.885h-3.647L12.808 6.31l-3.81 11.856H5.375L.297.281H4.25L7.358 11.6 10.99.28h3.658l3.698 11.403L21.386.281h3.907Z" fill="#FD0" mask="url(#d)"/></g><path fill="#FFF" d="M201.557 39.495 196.48 21.61h1.296l5.077 17.885z"/><path d="M189.818 39.495v-8.144M186.737 31.54v7.955" fill="#FD0"/></g></svg>